<?xml version="1.0" standalone="no"?><svg xmlns:xlink="http://www.w3.org/1999/xlink" xmlns="http://www.w3.org/2000/svg" viewBox="0 0 10000 4545.303347280335" preserveAspectRatio="xMaxYMax slice"><g transform="scale(10.460251046025105)"><rect x="0" y="0" width="956" height="434.5454545454545" fill="#ffffff"/><path d="M 260.73 0 A 86.91 86.91 0 0 1  347.64 86.91 L 260.73 0 A 86.91 86.91 0 0 0 347.64 86.91" fill="#6b6b6b"/><rect x="608.3636363636364" y="0" width="86.9090909090909" height="86.9090909090909" fill="#ffffff"/><path d="M 608.36 43.45 A 43.45 43.45 0 0 1  651.8100000000001 0 L 608.36 43.45 A 43.45 43.45 0 0 0 651.8100000000001 0" fill="#e6e6e6"/><path d="M 608.36 86.9 A 43.45 43.45 0 0 1  651.8100000000001 43.45 L 608.36 86.9 A 43.45 43.45 0 0 0 651.8100000000001 43.45" fill="#d3d3d3"/><path d="M 651.82 43.45 A 43.45 43.45 0 0 1  695.2700000000001 86.9 L 651.82 43.45 A 43.45 43.45 0 0 0 695.2700000000001 86.9" fill="#0a0a0a"/><rect x="173.8181818181818" y="86.9090909090909" width="86.9090909090909" height="86.9090909090909" fill="#ffffff"/><path d="M 347.64 86.91 A 86.91 86.91 0 0 1  434.54999999999995 173.82 L 347.64 86.91 A 86.91 86.91 0 0 0 434.54999999999995 173.82" fill="#cfcfcf"/><rect x="521.4545454545455" y="86.9090909090909" width="86.9090909090909" height="86.9090909090909" fill="#ffffff"/><rect x="695.2727272727273" y="86.9090909090909" width="86.9090909090909" height="86.9090909090909" fill="#ffffff"/><path d="M 695.27 130.36 A 43.45 43.45 0 0 1  738.72 173.81 L 695.27 130.36 A 43.45 43.45 0 0 0 738.72 173.81" fill="#f9f9f9"/><path d="M 0 260.73 A 86.91 86.91 0 0 1  86.91 173.82 L 0 260.73 A 86.91 86.91 0 0 0 86.91 173.82" fill="#e3e3e3"/><rect x="173.8181818181818" y="173.8181818181818" width="86.9090909090909" height="86.9090909090909" fill="#ffffff"/><path d="M 521.45 260.73 A 86.91 86.91 0 0 1  608.36 173.82 L 521.45 260.73 A 86.91 86.91 0 0 0 608.36 173.82" fill="#dadada"/><rect x="608.3636363636364" y="260.72727272727275" width="86.9090909090909" height="86.9090909090909" fill="#ffffff"/><path d="M 608.36 260.73 A 43.45 43.45 0 0 1  651.8100000000001 304.18 L 608.36 260.73 A 43.45 43.45 0 0 0 651.8100000000001 304.18" fill="#1a1a1a"/><path d="M 608.36 347.63 A 43.45 43.45 0 0 1  651.8100000000001 304.18 L 608.36 347.63 A 43.45 43.45 0 0 0 651.8100000000001 304.18" fill="#efefef"/><path d="M 86.91 434.54999999999995 A 86.91 86.91 0 0 1  173.82 347.64 L 86.91 434.54999999999995 A 86.91 86.91 0 0 0 173.82 347.64" fill="#494949"/><rect x="347.6363636363636" y="347.6363636363636" width="86.9090909090909" height="86.9090909090909" fill="#ffffff"/><path d="M 347.64 434.53999999999996 A 43.45 43.45 0 0 1  391.09 391.09 L 347.64 434.53999999999996 A 43.45 43.45 0 0 0 391.09 391.09" fill="#6e6e6e"/><path d="M 391.09 434.53999999999996 A 43.45 43.45 0 0 1  434.53999999999996 391.09 L 391.09 434.53999999999996 A 43.45 43.45 0 0 0 434.53999999999996 391.09" fill="#535353"/><path d="M 608.36 347.64 A 86.91 86.91 0 0 1  695.27 434.54999999999995 L 608.36 347.64 A 86.91 86.91 0 0 0 695.27 434.54999999999995" fill="#cccccc"/><path d="M 695.27 434.54999999999995 A 86.91 86.91 0 0 1  782.18 347.64 L 695.27 434.54999999999995 A 86.91 86.91 0 0 0 782.18 347.64" fill="#b7b7b7"/></g></svg>