<?xml version="1.0" standalone="no"?><svg xmlns:xlink="http://www.w3.org/1999/xlink" xmlns="http://www.w3.org/2000/svg" viewBox="0 0 10000 4545.303347280335" preserveAspectRatio="xMaxYMax slice"><g transform="scale(10.460251046025105)"><rect x="0" y="0" width="956" height="434.5454545454545" fill="#ffffff"/><path d="M 608.36 0 A 86.91 86.91 0 0 1  695.27 86.91 L 608.36 0 A 86.91 86.91 0 0 0 695.27 86.91" fill="#b9b9b9"/><path d="M 434.55 173.82 A 86.91 86.91 0 0 1  521.46 86.91 L 434.55 173.82 A 86.91 86.91 0 0 0 521.46 86.91" fill="#cfcfcf"/><rect x="521.4545454545455" y="86.9090909090909" width="86.9090909090909" height="86.9090909090909" fill="#ffffff"/><path d="M 608.36 173.82 A 86.91 86.91 0 0 1  695.27 86.91 L 608.36 173.82 A 86.91 86.91 0 0 0 695.27 86.91" fill="#9e9e9e"/><path d="M 695.27 86.91 A 86.91 86.91 0 0 1  782.18 173.82 L 695.27 86.91 A 86.91 86.91 0 0 0 782.18 173.82" fill="#fdfdfd"/><rect x="0" y="173.8181818181818" width="86.9090909090909" height="86.9090909090909" fill="#ffffff"/><path d="M 0 217.26999999999998 A 43.45 43.45 0 0 1  43.45 173.82 L 0 217.26999999999998 A 43.45 43.45 0 0 0 43.45 173.82" fill="#e2e2e2"/><path d="M 43.45 260.72 A 43.45 43.45 0 0 1  86.9 217.27 L 43.45 260.72 A 43.45 43.45 0 0 0 86.9 217.27" fill="#e7e7e7"/><path d="M 86.91 173.82 A 86.91 86.91 0 0 1  173.82 260.73 L 86.91 173.82 A 86.91 86.91 0 0 0 173.82 260.73" fill="#c9c9c9"/><path d="M 521.45 173.82 A 86.91 86.91 0 0 1  608.36 260.73 L 521.45 173.82 A 86.91 86.91 0 0 0 608.36 260.73" fill="#f4f4f4"/><path d="M 608.36 173.82 A 86.91 86.91 0 0 1  695.27 260.73 L 608.36 173.82 A 86.91 86.91 0 0 0 695.27 260.73" fill="#e9e9e9"/><rect x="782.1818181818181" y="173.8181818181818" width="86.9090909090909" height="86.9090909090909" fill="#ffffff"/><path d="M 825.64 173.82 A 43.45 43.45 0 0 1  869.09 217.26999999999998 L 825.64 173.82 A 43.45 43.45 0 0 0 869.09 217.26999999999998" fill="#afafaf"/><path d="M 86.91 347.64 A 86.91 86.91 0 0 1  173.82 260.73 L 86.91 347.64 A 86.91 86.91 0 0 0 173.82 260.73" fill="#0b0b0b"/><rect x="347.6363636363636" y="260.72727272727275" width="86.9090909090909" height="86.9090909090909" fill="#ffffff"/><path d="M 347.64 304.18 A 43.45 43.45 0 0 1  391.09 260.73 L 347.64 304.18 A 43.45 43.45 0 0 0 391.09 260.73" fill="#e1e1e1"/><path d="M 391.09 304.18 A 43.45 43.45 0 0 1  434.53999999999996 347.63 L 391.09 304.18 A 43.45 43.45 0 0 0 434.53999999999996 347.63" fill="#505050"/><rect x="521.4545454545455" y="260.72727272727275" width="86.9090909090909" height="86.9090909090909" fill="#ffffff"/><rect x="782.1818181818181" y="260.72727272727275" width="86.9090909090909" height="86.9090909090909" fill="#ffffff"/><path d="M 0 347.64 A 86.91 86.91 0 0 1  86.91 434.54999999999995 L 0 347.64 A 86.91 86.91 0 0 0 86.91 434.54999999999995" fill="#606060"/><path d="M 86.91 434.54999999999995 A 86.91 86.91 0 0 1  173.82 347.64 L 86.91 434.54999999999995 A 86.91 86.91 0 0 0 173.82 347.64" fill="#494949"/><path d="M 434.55 434.54999999999995 A 86.91 86.91 0 0 1  521.46 347.64 L 434.55 434.54999999999995 A 86.91 86.91 0 0 0 521.46 347.64" fill="#f2f2f2"/><path d="M 695.27 347.64 A 86.91 86.91 0 0 1  782.18 434.54999999999995 L 695.27 347.64 A 86.91 86.91 0 0 0 782.18 434.54999999999995" fill="#bbbbbb"/><rect x="782.1818181818181" y="347.6363636363636" width="86.9090909090909" height="86.9090909090909" fill="#ffffff"/><path d="M 782.18 347.64 A 43.45 43.45 0 0 1  825.63 391.09 L 782.18 347.64 A 43.45 43.45 0 0 0 825.63 391.09" fill="#a4a4a4"/><rect x="869.090909090909" y="347.6363636363636" width="86.9090909090909" height="86.9090909090909" fill="#ffffff"/><path d="M 869.09 347.64 A 43.45 43.45 0 0 1  912.5400000000001 391.09 L 869.09 347.64 A 43.45 43.45 0 0 0 912.5400000000001 391.09" fill="#b6b6b6"/><path d="M 912.55 391.09 A 43.45 43.45 0 0 1  956 434.53999999999996 L 912.55 391.09 A 43.45 43.45 0 0 0 956 434.53999999999996" fill="#dedede"/></g></svg>